<svg xmlns="http://www.w3.org/2000/svg" width="126" height="40" viewBox="0 0 126 40"><g fill="none" fill-rule="evenodd"><path fill="#8C1D81" d="M19.282.556C8.632.556 0 9.196 0 19.854s8.633 19.3 19.282 19.3c10.648 0 19.28-8.642 19.28-19.3S29.93.556 19.282.556m0 3.172c8.883 0 16.11 7.234 16.11 16.126S28.166 35.98 19.283 35.98c-8.885 0-16.112-7.234-16.112-16.126S10.397 3.728 19.282 3.728"/><path fill="#8C1D81" d="M7.824 13.382h10.952v3.328h-7.158v2.33h6.473v3.15h-6.473v4.894H7.824zM25.857 19.96c1.271 0 2.034-.627 2.034-1.626v-.039c0-1.096-.802-1.644-2.054-1.644h-2.503v3.308zm-6.318-6.578h6.474c2.093 0 3.54.548 4.46 1.468.801.803 1.212 1.84 1.212 3.19v.04c0 2.114-1.115 3.504-2.817 4.229l3.267 4.775h-4.362l-2.757-4.15h-1.682v4.15h-3.795zM46.014 13.977h5.94v.579h-5.313v3.46h4.771v.58h-4.771v3.822h-.627zM53.184 18.909v-4.932h.627v4.871c0 1.99 1.072 3.136 2.854 3.136 1.711 0 2.808-1.037 2.808-3.075v-4.932h.627v4.86c0 2.424-1.41 3.714-3.459 3.714-2.023 0-3.457-1.278-3.457-3.642M61.873 13.977h.591l5.819 7.344v-7.344h.602v8.441h-.469l-5.94-7.5v7.5h-.603zM73.597 21.84c2.35 0 3.831-1.605 3.831-3.619v-.024c0-2.002-1.482-3.64-3.83-3.64h-2.182v7.282zm-2.807-7.863h2.807c2.65 0 4.482 1.821 4.482 4.197v.023c0 2.375-1.831 4.22-4.482 4.22H70.79zM83.081 18.354c1.41 0 2.458-.71 2.458-1.93v-.023c0-1.134-.892-1.845-2.422-1.845h-2.88v3.798zm-3.47-4.378h3.543c1.036 0 1.867.326 2.373.832.398.4.639.965.639 1.569v.024c0 1.41-1.048 2.219-2.47 2.411l2.783 3.606h-.796l-2.686-3.497h-2.76v3.497h-.626zM93.432 19.488l-2.217-4.884-2.228 4.884zm-2.506-5.572h.602l3.928 8.502h-.687l-1.072-2.364h-4.976l-1.073 2.364h-.65zM96.722 22.418h.628v-8.441h-.628zM98.796 21.188l.41-.47c.927.856 1.782 1.254 3.024 1.254 1.265 0 2.132-.711 2.132-1.676v-.025c0-.892-.469-1.41-2.386-1.796-2.023-.41-2.843-1.098-2.843-2.376v-.024c0-1.254 1.145-2.22 2.711-2.22 1.23 0 2.036.34 2.892 1.025l-.397.496c-.796-.688-1.592-.953-2.52-.953-1.24 0-2.059.712-2.059 1.591v.025c0 .892.458 1.435 2.457 1.845 1.952.398 2.772 1.097 2.772 2.327v.024c0 1.363-1.17 2.304-2.795 2.304-1.35 0-2.386-.447-3.398-1.35M106.532 22.418h.627v-8.441h-.627zM109.147 13.977h.591l5.819 7.344v-7.344h.603v8.441h-.47l-5.94-7.5v7.5h-.603zM117.691 18.222v-.025c0-2.279 1.65-4.364 4.17-4.364 1.373 0 2.24.41 3.084 1.11l-.41.469c-.662-.58-1.434-1.014-2.71-1.014-2.05 0-3.483 1.737-3.483 3.775v.024c0 2.184 1.361 3.81 3.615 3.81 1.072 0 2.072-.444 2.687-.964V18.62h-2.82v-.58h3.421v3.257a5.06 5.06 0 0 1-3.312 1.266c-2.662 0-4.242-1.966-4.242-4.341"/><path fill="#575756" d="M50.082 29.132c1.012 0 1.593-.542 1.593-1.339v-.027c0-.892-.621-1.352-1.634-1.352h-2.066v2.718zm-4.187-4.596h4.322c1.202 0 2.133.338 2.754.96.528.526.81 1.27.81 2.162v.027c0 1.528-.823 2.487-2.025 2.933l2.31 3.38h-2.431l-2.027-3.028h-1.633v3.027h-2.08zM54.979 24.536h7.13v1.852h-5.064v1.919h4.456v1.852h-4.456v1.987h5.131v1.851h-7.197zM62.928 29.294v-.028c0-2.69 2.093-4.892 4.956-4.892 1.702 0 2.728.459 3.714 1.297l-1.31 1.581c-.73-.608-1.378-.96-2.471-.96-1.513 0-2.714 1.339-2.714 2.947v.027c0 1.73 1.188 3.001 2.862 3.001.757 0 1.432-.19 1.958-.568v-1.352H67.83V28.55h4.106v4.11c-.972.824-2.31 1.5-4.039 1.5-2.944 0-4.969-2.069-4.969-4.866M73.105 29.942v-5.406h2.08v5.352c0 1.542.77 2.338 2.04 2.338 1.268 0 2.038-.77 2.038-2.27v-5.42h2.08v5.338c0 2.866-1.607 4.272-4.146 4.272s-4.092-1.42-4.092-4.204M82.782 24.536h2.08v7.569h4.713v1.892h-6.793zM95.89 30.037l-1.256-3.068-1.255 3.068zm-2.187-5.57h1.918l4.05 9.53h-2.173l-.865-2.122h-3.997l-.865 2.122h-2.12zM101.436 26.454h-2.877v-1.918h7.833v1.918h-2.877v7.543h-2.079zM114.356 29.294v-.028c0-1.621-1.19-2.973-2.863-2.973-1.676 0-2.836 1.324-2.836 2.946v.027c0 1.622 1.188 2.975 2.862 2.975s2.837-1.325 2.837-2.947m-7.874 0v-.028c0-2.69 2.12-4.892 5.037-4.892 2.918 0 5.01 2.176 5.01 4.865v.027c0 2.69-2.12 4.894-5.036 4.894-2.917 0-5.011-2.176-5.011-4.866M121.885 29.132c1.013 0 1.594-.542 1.594-1.339v-.027c0-.892-.622-1.352-1.635-1.352h-2.065v2.718zm-4.186-4.596h4.321c1.202 0 2.134.338 2.755.96.527.526.81 1.27.81 2.162v.027c0 1.528-.823 2.487-2.025 2.933l2.309 3.38h-2.43l-2.027-3.028h-1.633v3.027h-2.08zM48.177 7.155c.634 0 1.037-.331 1.037-.843v-.015c0-.54-.389-.836-1.045-.836H46.88v1.694zm-2.183-2.501h2.247c.634 0 1.13.187 1.455.504.267.274.418.65.418 1.09v.014c0 .829-.497 1.326-1.195 1.528l1.36 1.91h-1.05l-1.24-1.76H46.88V9.7h-.886zM53.65 7.53c-.058-.562-.389-1.002-.965-1.002-.533 0-.908.411-.987 1.002zm-2.816.281v-.015c0-1.088.77-1.982 1.858-1.982 1.21 0 1.822.952 1.822 2.048q-.001.116-.015.244h-2.794c.093.62.533.967 1.095.967.424 0 .727-.16 1.03-.455l.511.455c-.36.432-.857.713-1.556.713-1.101 0-1.95-.8-1.95-1.975M58.263 7.61v-.015c0-.62-.512-1.045-1.117-1.045s-1.08.418-1.08 1.045v.014c0 .62.482 1.046 1.08 1.046.605 0 1.117-.426 1.117-1.045m-2.888 2.803.324-.656c.41.252.836.404 1.353.404.779 0 1.203-.404 1.203-1.168v-.295c-.317.41-.713.7-1.34.7-.892 0-1.728-.665-1.728-1.781v-.015c0-1.124.844-1.788 1.729-1.788.641 0 1.037.296 1.333.65v-.57h.87V8.92c0 .642-.165 1.117-.482 1.434-.345.346-.878.512-1.563.512-.627 0-1.21-.159-1.699-.454M60.257 9.7h.93V5.893h-.93zm-.039-4.39h1v-.83h-1zM61.93 9.202l.389-.59c.418.309.857.467 1.246.467.374 0 .59-.158.59-.41v-.014c0-.296-.403-.397-.849-.534-.562-.159-1.189-.39-1.189-1.117V6.99c0-.72.598-1.16 1.354-1.16.476 0 .994.165 1.398.431l-.346.62c-.368-.223-.756-.36-1.074-.36-.338 0-.533.159-.533.375v.014c0 .281.412.397.857.54.555.173 1.182.426 1.182 1.11v.015c0 .8-.62 1.196-1.412 1.196-.54 0-1.138-.194-1.613-.569M66.02 8.647V6.644h-.481v-.75h.482V4.848h.871v1.046h1.023v.75h-1.023V8.51c0 .34.174.476.468.476.195 0 .368-.043.54-.13v.714a1.5 1.5 0 0 1-.785.195c-.641 0-1.094-.282-1.094-1.118M71.298 7.53c-.057-.562-.389-1.002-.965-1.002-.533 0-.907.411-.987 1.002zm-2.815.281v-.015c0-1.088.77-1.982 1.857-1.982 1.21 0 1.823.952 1.823 2.048 0 .078-.008.158-.015.244h-2.795c.094.62.534.967 1.096.967.424 0 .726-.16 1.029-.455l.512.455c-.36.432-.858.713-1.556.713-1.102 0-1.951-.8-1.951-1.975M73.054 5.894h.872v.858c.237-.57.677-.96 1.346-.93v.922h-.05c-.764 0-1.296.498-1.296 1.506V9.7h-.872zM78.578 7.53c-.058-.562-.389-1.002-.964-1.002-.534 0-.909.411-.987 1.002zm-2.815.281v-.015c0-1.088.77-1.982 1.857-1.982 1.21 0 1.823.952 1.823 2.048 0 .078-.008.158-.015.244h-2.794c.093.62.533.967 1.095.967.424 0 .727-.16 1.029-.455l.512.455c-.36.432-.858.713-1.556.713-1.102 0-1.951-.8-1.951-1.975M83.21 7.804V7.79c0-.736-.52-1.22-1.102-1.22-.599 0-1.095.463-1.095 1.22v.014c0 .735.504 1.217 1.095 1.217.582 0 1.102-.489 1.102-1.217m-3.076 0V7.79c0-1.262.857-1.976 1.765-1.976.626 0 1.022.31 1.296.67V4.438h.872v5.261h-.872v-.634c-.28.396-.677.714-1.296.714-.894 0-1.765-.714-1.765-1.975M87.004 5.894h.893l.763 2.609.843-2.623h.75l.842 2.623.778-2.609h.879l-1.247 3.834h-.785l-.849-2.601-.857 2.601h-.778zM93.503 9.7h.93V5.893h-.93zm-.039-4.39h1v-.83h-1zM95.645 8.647V6.644h-.482v-.75h.482V4.848h.872v1.046h1.022v.75h-1.022V8.51c0 .34.174.476.468.476.195 0 .367-.043.54-.13v.714a1.5 1.5 0 0 1-.784.195c-.642 0-1.096-.282-1.096-1.118M98.42 4.438h.871v2.04c.245-.353.597-.663 1.188-.663.858 0 1.354.576 1.354 1.456V9.7h-.871V7.537c0-.59-.295-.93-.814-.93-.504 0-.857.354-.857.945V9.7h-.871z"/></g></svg>