<svg xmlns="http://www.w3.org/2000/svg" width="24" height="24" fill="none" viewBox="0 0 24 24"><path fill="#fff" d="M16.85 0C20.793 0 24 3.207 24 7.15v9.7A7.16 7.16 0 0 1 16.85 24h-9.7C3.207 24 0 20.793 0 16.85v-9.7C0 3.207 3.207 0 7.15 0zm4.736 16.85v-9.7a4.735 4.735 0 0 0-4.736-4.736h-9.7A4.735 4.735 0 0 0 2.414 7.15v9.7a4.735 4.735 0 0 0 4.736 4.736h9.7a4.735 4.735 0 0 0 4.736-4.736M12 6c3.308 0 6 2.692 6 6s-2.692 6-6 6-6-2.692-6-6 2.692-6 6-6m0 9.666a3.666 3.666 0 1 0 0-7.332 3.666 3.666 0 0 0 0 7.332M18.5 7a1.5 1.5 0 1 1 0-3 1.5 1.5 0 0 1 0 3"/></svg>
