<svg xmlns="http://www.w3.org/2000/svg" width="24" height="24" fill="none" viewBox="0 0 24 24"><path fill="#fff" d="M16.042 2A5.965 5.965 0 0 1 22 7.958v8.084A5.965 5.965 0 0 1 16.042 22H7.958A5.965 5.965 0 0 1 2 16.042V7.958A5.965 5.965 0 0 1 7.958 2zm3.946 14.042V7.958a3.946 3.946 0 0 0-3.946-3.946H7.958a3.946 3.946 0 0 0-3.946 3.946v8.084a3.946 3.946 0 0 0 3.946 3.946h8.084a3.946 3.946 0 0 0 3.946-3.946M12 7c2.757 0 5 2.243 5 5s-2.243 5-5 5-5-2.243-5-5 2.243-5 5-5m0 8.055a3.055 3.055 0 1 0 0-6.11 3.055 3.055 0 0 0 0 6.11m5.417-7.222a1.25 1.25 0 1 1 0-2.5 1.25 1.25 0 0 1 0 2.5"/></svg>