<svg xmlns="http://www.w3.org/2000/svg" width="24" height="24" viewBox="0 0 24 24"><path fill="#fff" fill-rule="evenodd" clip-rule="evenodd" d="M1.977 24h20.047A1.977 1.977 0 0 0 24 22.023V1.977A1.977 1.977 0 0 0 22.023 0H1.977A1.977 1.977 0 0 0 0 1.977v20.047C0 23.114.885 24 1.977 24m7.2-14.823h3.353v1.687C12.98 9.964 14.288 9 16.02 9c3.319 0 4.45 1.5 4.45 5.063v6.408h-3.529v-5.659c0-1.874-.366-2.9-1.734-2.9-1.85 0-2.5 1.406-2.5 2.9v5.659h-3.53zM3.53 20.47h3.529V9.177h-3.53zM7.447 5.294a2.153 2.153 0 1 1-4.307 0 2.153 2.153 0 0 1 4.307 0"/></svg>
