<svg xmlns="http://www.w3.org/2000/svg" width="24" height="25"><path fill="#fff" d="M20.503 3.504A11.87 11.87 0 0 0 12.05 0C5.463 0 .103 5.36.1 11.949a11.924 11.924 0 0 0 1.595 5.974L0 24.116l6.335-1.662a11.934 11.934 0 0 0 5.71 1.454h.005s.001 0 0 0c6.586 0 11.948-5.36 11.95-11.95a11.878 11.878 0 0 0-3.497-8.454zM12.05 21.89h-.004a9.92 9.92 0 0 1-5.055-1.384l-.363-.215-3.76.986 1.004-3.666-.236-.376a9.907 9.907 0 0 1-1.518-5.285c.002-5.476 4.458-9.932 9.936-9.932a9.865 9.865 0 0 1 7.022 2.913 9.87 9.87 0 0 1 2.907 7.027c-.003 5.476-4.458 9.932-9.933 9.932zm5.448-7.439c-.298-.15-1.766-.871-2.04-.971-.274-.1-.473-.15-.672.15-.198.299-.77.971-.945 1.17-.174.2-.348.224-.647.075-.298-.15-1.26-.465-2.401-1.482-.888-.792-1.487-1.77-1.661-2.069-.175-.299-.019-.46.13-.609.134-.134.299-.349.448-.523.15-.174.2-.299.299-.498.1-.2.05-.373-.025-.523-.074-.15-.671-1.62-.92-2.217-.243-.582-.49-.503-.672-.513a12.07 12.07 0 0 0-.572-.01c-.2 0-.523.075-.797.374s-1.045 1.021-1.045 2.49c0 1.47 1.07 2.89 1.22 3.09.149.199 2.105 3.215 5.1 4.508.712.308 1.268.492 1.702.63.715.227 1.366.195 1.88.118.574-.086 1.767-.722 2.016-1.42.249-.697.249-1.295.174-1.42-.074-.125-.273-.2-.572-.35z"/></svg>
