<svg xmlns="http://www.w3.org/2000/svg" width="126" height="27" viewBox="0 0 126 27"><title>Woodland Trust</title><path fill="#005F50" d="M13.844 0c3.057 0 4.775 3.265 6.586 3.265 1.403 0 2.648-2.58 5.35-2.58 3.666 0 1.507 6.59 4.658 6.59 1.015 0 1.64-.684 2.574-.684.278 0 1.43.491 1.43 2.054 0 .903-.957 2.07-1.269 2.34-.335.29-.846.702-.649 1.768.06.32.085 2.064.085 2.568 0 .66-.394 1.198-1.156 1.198-1.246 0-1.623-1.268-1.89-1.94-3.111-7.887-10.69-10.241-11.951-10.241 1.28.614 12.771 5.9 12.771 16.774 0 1.198.105 2.196-.451 2.196-.802 0-1.157-1.003-1.157-1.198 0-.578.536-.425.536-2.368 0-2.228-4.64-2.957-5.356-3.138-.715-.18-1.833-.545-1.833-1.597 0-.649.93-1.068.93-1.769 0-.4-1.17-.494-1.582-.542l-3.925-.45c-.564-.064-1.823-.37-1.823-1.318 0-.88.733-1.359.733-1.798 0-.713-1.96-.862-2.675-.96-.678-.094-2.879-.25-2.879-1.722 0-.713.987-1.508.987-2.168 0-.572-1.121-1.258-1.121-2 0-.46.842-2.28 3.078-2.28z"/><path fill="#83BB26" d="M9.36 3.754c.146-.006.4.395.407.58.013.376-.085.507-.398.721-.22.151-1.055.809-1.03 1.544.097 2.697 4.609 1.93 4.667 3.567.044 1.226-1.226 1.19-1.19 2.144.067 1.91 7.077.097 7.16 2.417.051 1.428-1.018 1.335-.982 2.323.067 1.89 5.555.167 5.636 2.434.054 1.504-1.714 1.427-1.675 2.497.032.89 1.356.932 1.387 1.79.018.52-.657 2.181-2.73 2.257-3.82.14-3.991-3.22-6.14-3.141-2.182.08-3.59 1.935-5.846 2.017-1.788.065-2.67-1.7-2.704-2.634-.033-.935.637-4.077-1.833-3.986-.744.026-1.55.254-2.233.278-.526.019-1.805-.664-1.853-2.007-.111-3.129 2.604-2.74 2.554-4.11-.02-.579-.252-1.425-.272-1.98-.024-.685.42-1.745 1.443-1.782.702-.026 1.141.014 1.46 1.267 1.903 7.449 10.173 12.013 13.566 11.925-4.192-1.48-12.368-6.568-12.747-13.202-.102-1.785 1.888-4.866 3.352-4.92z"/><path fill="#B45202" d="M55.637 4.067h-.767l-2.502 7.223-2.63-7.223h-1.443l.534 1.252c-.028.08-1.902 5.403-2.087 5.933-.202-.538-2.683-7.185-2.683-7.185h-1.386l3.709 9.974h.316L49.3 6.565l2.709 7.476h.316l3.472-9.974zm.87 4.885c0 2.113 1.574 5.09 5.077 5.09 3.502 0 5.077-2.977 5.077-5.09 0-2.107-1.575-5.074-5.077-5.074-3.503 0-5.078 2.967-5.078 5.074zm1.549.015c0-2.664 1.319-4.256 3.528-4.256 2.143 0 3.528 1.634 3.528 4.161 0 4.022-2.7 4.334-3.528 4.334-2.176 0-3.528-1.623-3.528-4.239m10.442-.015c0 2.113 1.574 5.09 5.077 5.09 3.501 0 5.077-2.977 5.077-5.09 0-2.107-1.576-5.074-5.077-5.074-3.503 0-5.078 2.967-5.078 5.074zm1.549.015c0-2.664 1.32-4.256 3.528-4.256 2.143 0 3.528 1.634 3.528 4.161 0 4.022-2.7 4.334-3.528 4.334-2.176 0-3.528-1.623-3.528-4.239m10.803-4.9h-.114v9.782h3.077c3.13 0 4.998-1.784 4.998-4.77 0-2.904-2.076-5.012-4.937-5.012zm2.065.835c2.026 0 4.44.778 4.44 4.48 0 2.512-1.281 3.633-4.157 3.633H82.05V4.902zm34.618-.835h-.112v9.782h3.076c3.13 0 4.997-1.784 4.997-4.77 0-2.904-2.075-5.012-4.935-5.012zm2.065.835c2.027 0 4.441.778 4.441 4.48 0 2.512-1.282 3.633-4.157 3.633h-1.148V4.902zm-27.48-.835H90.92v9.782h5.427v-.834h-4.114V4.067h-.114zm9.774-.19h-.71l-3.476 9.972h.852l1.207-3.444h3.183l1.262 3.444h1.392l-3.631-9.972zm-.624 1.897 1.407 3.797h-2.628zm13.68-1.702h-.744v7.722c-.319-.399-6.202-7.722-6.202-7.722h-.747v9.777h.857V6.22l6.152 7.63h.797V4.072zM76.785 18.985h-.112v6.05h.888v-2.694h.195c.663 0 1.08.323 1.485 1.153l.75 1.541h.953l-.752-1.555c-.358-.744-.658-1.104-1.168-1.362a1.595 1.595 0 0 0 1.054-1.504c0-.751-.503-1.63-1.92-1.63zm1.2.596c1.056 0 1.138.82 1.138 1.071 0 .704-.499 1.091-1.406 1.091h-.156v-2.162zm19.328-.602h-4.782v.755h2.017v5.301h.86v-5.3h2.019v-.756zm-21.789 0h-4.782v.755h2.016v5.301h.86v-5.3h2.02v-.756zm11.08.003h-.777v3.79c0 1.1-.593 1.784-1.549 1.784-.984 0-1.549-.665-1.549-1.826v-3.748h-.89v3.849c0 1.431.935 2.32 2.44 2.32 1.503 0 2.438-.889 2.438-2.32v-3.849h-.114zm1.833 1.437c0 1.103.834 1.584 1.57 2.01.585.337 1.088.629 1.088 1.157 0 .18-.074.466-.282.679-.191.192-.46.29-.796.288-.87 0-1.455-.969-1.576-1.173v.986c.111.127.725.773 1.678.773 1.076 0 1.798-.672 1.798-1.673 0-1.07-.804-1.523-1.513-1.922-.616-.348-1.148-.647-1.148-1.273 0-.49.344-.808.88-.808.842 0 1.304.63 1.525 1.062v-.944a1.86 1.86 0 0 0-1.473-.715c-.843 0-1.75.486-1.75 1.553z"/></svg>
