<svg xmlns="http://www.w3.org/2000/svg" width="46" height="36" viewBox="0 0 46 36"><path fill="#fff" d="M18.46.595c4.076 0 6.366 4.354 8.78 4.354 1.872 0 3.532-3.44 7.135-3.44 4.887 0 2.009 8.787 6.21 8.787 1.354 0 2.186-.913 3.432-.913.371 0 1.906.655 1.906 2.74 0 1.203-1.275 2.758-1.691 3.118-.447.388-1.129.936-.865 2.358.08.427.114 2.752.114 3.424 0 .881-.526 1.597-1.542 1.597-1.662 0-2.165-1.691-2.52-2.587C35.27 9.519 25.165 6.38 23.483 6.38c1.707.818 17.029 7.868 17.029 22.365 0 1.598.14 2.928-.602 2.928-1.069 0-1.542-1.338-1.542-1.596 0-.771.714-.568.714-3.158 0-2.971-6.185-3.943-7.141-4.184-.953-.241-2.443-.728-2.443-2.13 0-.865 1.24-1.423 1.24-2.358 0-.533-1.56-.66-2.11-.722l-5.233-.6c-.752-.086-2.431-.493-2.431-1.759 0-1.172.977-1.811.977-2.396 0-.951-2.614-1.15-3.566-1.28-.905-.126-3.839-.334-3.839-2.296 0-.951 1.316-2.01 1.316-2.891 0-.763-1.496-1.678-1.496-2.667 0-.614 1.124-3.04 4.105-3.04"/><path fill="#fff" d="M12.48 5.6c.195-.008.532.527.542.773.018.502-.112.677-.53.963-.294.2-1.407 1.077-1.372 2.057.128 3.596 6.144 2.573 6.221 4.756.06 1.636-1.634 1.587-1.588 2.86.092 2.545 9.438.129 9.55 3.222.066 1.904-1.36 1.78-1.312 3.097.09 2.52 7.408.223 7.515 3.246.073 2.005-2.284 1.902-2.233 3.33.043 1.185 1.809 1.242 1.85 2.387.024.692-.876 2.907-3.641 3.008-5.094.186-5.32-4.293-8.187-4.188-2.909.106-4.786 2.58-7.793 2.689-2.385.087-3.56-2.266-3.606-3.512-.044-1.246.85-5.436-2.444-5.315-.992.035-2.067.339-2.977.371-.702.026-2.407-.885-2.47-2.676-.15-4.171 3.471-3.652 3.405-5.48-.028-.772-.337-1.9-.363-2.64-.033-.913.559-2.326 1.923-2.376.937-.034 1.522.02 1.948 1.69 2.536 9.931 13.563 16.017 18.087 15.9-5.589-1.975-16.49-8.758-16.996-17.602-.136-2.381 2.518-6.49 4.47-6.56"/></svg>
