<svg xmlns="http://www.w3.org/2000/svg" width="100" height="63" viewBox="0 0 100 63"><title>Woodland Trust</title><path fill="#fff" d="M45.25 0c3.66 0 5.72 3.9 7.89 3.9 1.68 0 3.17-3.08 6.41-3.08 4.39 0 1.8 7.86 5.58 7.86 1.22 0 1.96-.81 3.08-.81.34 0 1.72.58 1.72 2.45 0 1.08-1.15 2.47-1.53 2.79-.4.35-1 .84-.77 2.1.07.4.1 2.47.1 3.07 0 .8-.47 1.43-1.39 1.43-1.49 0-1.94-1.51-2.26-2.31-3.73-9.41-12.8-12.22-14.32-12.22 1.53.73 15.3 7.04 15.3 20.02 0 1.43.13 2.62-.54 2.62-.96 0-1.38-1.2-1.38-1.43 0-.7.64-.51.64-2.83 0-2.66-5.56-3.53-6.42-3.74-.85-.22-2.2-.66-2.2-1.91 0-.78 1.12-1.28 1.12-2.11 0-.48-1.4-.6-1.9-.65l-4.7-.53c-.67-.08-2.18-.45-2.18-1.58 0-1.05.88-1.62.88-2.14 0-.85-2.35-1.03-3.2-1.15-.82-.11-3.46-.3-3.46-2.05 0-.85 1.19-1.8 1.19-2.6 0-.67-1.35-1.5-1.35-2.38 0-.55 1.01-2.72 3.69-2.72M40.5 4.58c-1.75.06-4.14 3.74-4.01 5.87.45 7.91 10.24 13.99 15.26 15.75-4.06.1-13.97-5.34-16.25-14.23-.38-1.5-.9-1.54-1.75-1.51-1.22.04-1.75 1.31-1.72 2.13.02.66.3 1.67.32 2.36.06 1.64-3.2 1.17-3.06 4.9.06 1.6 1.6 2.42 2.22 2.4.82-.03 1.79-.3 2.68-.33 2.96-.11 2.15 3.64 2.2 4.75.03 1.12 1.1 3.23 3.23 3.15 2.7-.1 4.4-2.31 7-2.4 2.58-.1 2.78 3.9 7.36 3.74 2.48-.1 3.3-2.07 3.27-2.7-.03-1.02-1.62-1.07-1.66-2.13-.04-1.28 2.07-1.19 2-2.98-.09-2.7-6.66-.65-6.75-2.9-.04-1.18 1.24-1.07 1.18-2.78-.1-2.77-8.5-.6-8.58-2.88-.04-1.14 1.48-1.1 1.43-2.56-.07-1.95-5.48-1.04-5.59-4.26-.03-.87.97-1.66 1.23-1.84.38-.26.5-.41.48-.86 0-.22-.31-.7-.49-.7M15.53 37.63h-.92l-3 8.62-3.14-8.62H6.74l.64 1.5-2.5 7.07-3.22-8.57H0l4.44 11.9h.38l3.12-8.92 3.24 8.92h.38l4.16-11.9zm2.9 5.85c0 3.12 1.62 5.06 4.22 5.06 1 0 4.23-.38 4.23-5.18 0-3.01-1.66-4.96-4.23-4.96-2.64 0-4.22 1.9-4.22 5.08m-1.86-.02c0-2.52 1.89-6.06 6.08-6.06s6.09 3.54 6.09 6.06-1.89 6.07-6.09 6.07-6.08-3.55-6.08-6.07m16.22.02c0 3.12 1.62 5.06 4.23 5.06 1 0 4.23-.38 4.23-5.18 0-3.01-1.66-4.96-4.23-4.96-2.65 0-4.23 1.9-4.23 5.08m-1.85-.02c0-2.52 1.88-6.06 6.08-6.06s6.08 3.54 6.08 6.06-1.88 6.07-6.08 6.07-6.08-3.55-6.08-6.07m22.59.51c0-4.42-2.9-5.34-5.32-5.34h-1.04v9.68h1.38c3.44 0 4.98-1.34 4.98-4.34m-4.17-6.34a5.75 5.75 0 0 1 5.91 5.98c0 3.56-2.24 5.7-5.99 5.7H45.6V37.61zm41.76 1v9.68h1.37c3.45 0 4.99-1.34 4.99-4.34 0-4.42-2.9-5.34-5.32-5.34zm2.19-1a5.75 5.75 0 0 1 5.9 5.98c0 3.56-2.23 5.7-5.98 5.7h-3.68V37.61zm-34.07 0H57.8v11.67h6.5v-1h-4.93V37.63zm10.96 2.04-1.47 4.53h3.15zm.84-2.27 4.35 11.9h-1.67l-1.51-4.1h-3.82l-1.44 4.1h-1.02l4.16-11.9zm15.54.23h-.89v9.22l-7.43-9.22h-.9V49.3h1.03v-9.1l7.37 9.1h.96V37.62zM41.8 56.13v2.58h.2c1.08 0 1.67-.46 1.67-1.3 0-.3-.1-1.28-1.36-1.28zm.72-.7c1.7 0 2.3 1.04 2.3 1.94 0 .68-.4 1.48-1.26 1.79.6.3.97.74 1.4 1.63l.9 1.85H44.7l-.9-1.84c-.49-.99-.99-1.37-1.78-1.37h-.24v3.21h-1.06v-7.22zm22.95 0h-5.73v.9h2.42v6.32h1.03v-6.33h2.41v-.9zm-26.1 0h-5.74v.9h2.42v6.32h1.03v-6.33h2.42v-.9zm13.27 0h-.93v4.52c0 1.31-.71 2.13-1.86 2.13-1.18 0-1.86-.8-1.86-2.18v-4.47h-1.06v4.6c0 1.7 1.12 2.76 2.92 2.76s2.92-1.06 2.92-2.77v-4.59zm2.2 1.71c0 1.32 1 1.9 1.87 2.4zm1.87 2.4c.7.4 1.3.75 1.3 1.38 0 .22-.08.56-.33.81q-.35.35-.95.35c-1.05 0-1.75-1.16-1.89-1.4v1.17c.13.15.87.92 2.01.92 1.29 0 2.15-.8 2.15-2 0-1.27-.96-1.81-1.8-2.29-.75-.41-1.39-.77-1.39-1.51 0-.59.42-.97 1.06-.97 1 0 1.56.75 1.83 1.27v-1.13a2.2 2.2 0 0 0-1.77-.85c-1.01 0-2.1.58-2.1 1.85z"/></svg>
