<svg xmlns="http://www.w3.org/2000/svg" width="126" height="27" viewBox="0 0 126 27"><title>Woodland Trust</title><path fill="#fff" d="M13.84.45c3.06 0 4.78 3.26 6.59 3.26 1.4 0 2.65-2.58 5.35-2.58 3.67 0 1.5 6.6 4.66 6.6 1.01 0 1.64-.7 2.57-.7.28 0 1.43.5 1.43 2.06 0 .9-.96 2.07-1.27 2.34-.33.3-.84.7-.65 1.77.06.32.09 2.06.09 2.57 0 .66-.4 1.2-1.16 1.2-1.24 0-1.62-1.27-1.89-1.94-3.1-7.9-10.69-10.25-11.95-10.25 1.28.62 12.77 5.9 12.77 16.78 0 1.2.1 2.2-.45 2.2-.8 0-1.16-1-1.16-1.2 0-.58.54-.43.54-2.37 0-2.23-4.64-2.96-5.36-3.14-.71-.18-1.83-.55-1.83-1.6 0-.65.93-1.06.93-1.77 0-.4-1.17-.49-1.58-.54l-3.93-.45c-.56-.06-1.82-.37-1.82-1.32 0-.88.73-1.35.73-1.8 0-.7-1.96-.86-2.67-.95-.68-.1-2.88-.25-2.88-1.73 0-.7.99-1.5.99-2.16 0-.58-1.12-1.26-1.12-2 0-.46.84-2.28 3.07-2.28"/><path fill="#fff" d="M9.36 4.2c.15 0 .4.4.4.58.02.38-.08.5-.4.72-.21.15-1.05.81-1.02 1.55.1 2.7 4.6 1.92 4.67 3.56.04 1.23-1.23 1.2-1.2 2.15.07 1.9 7.08.1 7.17 2.41.05 1.43-1.02 1.34-.99 2.33.07 1.89 5.56.16 5.64 2.43.05 1.5-1.71 1.43-1.68 2.5.04.89 1.36.93 1.4 1.79.01.52-.66 2.18-2.74 2.25-3.82.14-3.99-3.22-6.14-3.14-2.18.08-3.59 1.94-5.84 2.02-1.8.07-2.67-1.7-2.7-2.63-.04-.94.63-4.08-1.84-3.99-.75.03-1.55.25-2.23.28-.53.02-1.8-.67-1.86-2-.1-3.14 2.6-2.75 2.56-4.12-.02-.58-.26-1.42-.28-1.98-.02-.68.42-1.74 1.45-1.78.7-.03 1.14.01 1.46 1.27 1.9 7.44 10.17 12 13.56 11.92-4.19-1.48-12.36-6.57-12.74-13.2C5.9 7.33 7.9 4.25 9.36 4.2M54.87 4.51l-2.5 7.23-2.63-7.23h-1.45l.54 1.26-2.09 5.93-2.68-7.19h-1.39l3.71 9.98h.32L49.3 7 52 14.5h.32L55.8 4.5zM56.5 9.4a5.05 5.05 0 0 0 5.08 5.09c3.5 0 5.08-2.98 5.08-5.1 0-2.1-1.57-5.07-5.08-5.07a5.04 5.04 0 0 0-5.07 5.08m1.56.01c0-2.66 1.31-4.25 3.52-4.25 2.15 0 3.53 1.63 3.53 4.16 0 4.02-2.7 4.33-3.53 4.33-2.17 0-3.52-1.62-3.52-4.24M68.5 9.4a5.05 5.05 0 0 0 5.07 5.09c3.5 0 5.08-2.98 5.08-5.1 0-2.1-1.57-5.07-5.08-5.07A5.04 5.04 0 0 0 68.5 9.4m1.55.01c0-2.66 1.32-4.25 3.52-4.25 2.15 0 3.53 1.63 3.53 4.16 0 4.02-2.7 4.33-3.53 4.33-2.17 0-3.52-1.62-3.52-4.24M80.74 4.51v9.79h3.07c3.13 0 5-1.79 5-4.77 0-2.9-2.08-5.02-4.94-5.02zm2.17.84c2.03 0 4.45.78 4.45 4.48 0 2.51-1.29 3.63-4.16 3.63h-1.15V5.35zM117.42 4.51v9.79h3.08c3.13 0 5-1.79 5-4.77 0-2.9-2.08-5.02-4.94-5.02zm2.18.84c2.03 0 4.44.78 4.44 4.48 0 2.51-1.28 3.63-4.16 3.63h-1.15V5.35zM90.92 4.51v9.79h5.43v-.84h-4.12V4.51zM101.18 4.32l-3.47 9.98h.85l1.2-3.45h3.19l1.26 3.45h1.4l-3.64-9.98zm.09 1.9 1.4 3.8h-2.62zM114.2 4.52v7.72L108 4.52h-.75v9.78h.86V6.66l6.15 7.64h.8V4.52zM76.67 19.43v6.05h.9v-2.7h.19c.66 0 1.08.33 1.48 1.16l.75 1.54h.95l-.75-1.55c-.36-.75-.66-1.1-1.17-1.37a1.6 1.6 0 0 0 1.06-1.5c0-.75-.5-1.63-1.92-1.63zm1.32.6c1.05 0 1.13.82 1.13 1.07 0 .7-.5 1.09-1.4 1.09h-.16v-2.16zM92.53 19.43v.75h2.02v5.3h.86v-5.3h2.02v-.75zM70.74 19.43v.75h2.02v5.3h.86v-5.3h2.02v-.75zM85.83 19.43v3.79c0 1.1-.6 1.78-1.55 1.78-.99 0-1.55-.66-1.55-1.82v-3.75h-.89v3.85c0 1.43.93 2.32 2.44 2.32s2.44-.9 2.44-2.32v-3.85zM88.44 20.87c0 1.1.83 1.58 1.57 2 .58.34 1.09.63 1.09 1.16 0 .18-.08.47-.29.68q-.29.3-.8.29c-.86 0-1.45-.97-1.57-1.17v.98c.11.13.73.78 1.68.78 1.07 0 1.8-.68 1.8-1.68 0-1.07-.8-1.52-1.52-1.92-.61-.35-1.14-.65-1.14-1.27 0-.5.34-.81.88-.81.84 0 1.3.63 1.52 1.06v-.94a1.9 1.9 0 0 0-1.47-.72c-.85 0-1.75.49-1.75 1.56"/></svg>
