<svg width="{{ include.width | default: '100%' }}" height="{{ include.height | default: '100%' }}" class="{{ include.classes }}" viewBox="0 0 330 220" fill="none" xmlns="http://www.w3.org/2000/svg">
<rect width="330" height="220" fill="#F6F6F6"/>
<path d="M237.769 37H92.2308C88.7218 37 85.3565 38.3984 82.8752 40.8875C80.394 43.3766 79 46.7526 79 50.2727V169.727C79 173.247 80.394 176.623 82.8752 179.113C85.3565 181.602 88.7218 183 92.2308 183H237.769C241.278 183 244.644 181.602 247.125 179.113C249.606 176.623 251 173.247 251 169.727V50.2727C251 46.7526 249.606 43.3766 247.125 40.8875C244.644 38.3984 241.278 37 237.769 37ZM237.769 50.2727V135.509L216.211 113.891C214.983 112.658 213.524 111.68 211.919 111.013C210.313 110.345 208.592 110.002 206.855 110.002C205.117 110.002 203.396 110.345 201.791 111.013C200.185 111.68 198.727 112.658 197.498 113.891L180.96 130.481L144.575 93.9815C142.094 91.4942 138.73 90.0971 135.222 90.0971C131.715 90.0971 128.351 91.4942 125.87 93.9815L92.2308 127.727V50.2727H237.769ZM92.2308 146.5L135.231 103.364L201.385 169.727H92.2308V146.5ZM237.769 169.727H220.098L190.329 139.864L206.867 123.273L237.769 154.281V169.727ZM178.231 86.7727C178.231 84.8039 178.813 82.8793 179.903 81.2423C180.993 79.6053 182.543 78.3294 184.356 77.5759C186.17 76.8225 188.165 76.6254 190.09 77.0095C192.015 77.3936 193.783 78.3416 195.171 79.7338C196.558 81.126 197.503 82.8997 197.886 84.8307C198.269 86.7617 198.073 88.7632 197.322 90.5822C196.571 92.4011 195.299 93.9558 193.667 95.0496C192.035 96.1435 190.116 96.7273 188.154 96.7273C185.522 96.7273 182.998 95.6785 181.137 93.8117C179.276 91.9448 178.231 89.4128 178.231 86.7727Z" fill="#A2A2A2"/>
</svg>
