<svg xmlns="http://www.w3.org/2000/svg" width="660" height="579" viewBox="0 0 660 579" class="{{ include.classes }}" role="{{ include.role | default: 'presentation' }}"><path fill="currentColor" d="M472.382 94.731c1.061 7.278 8.067 7.026 15.433 5.669l-24.925 20.926c-12.94 10.867-9.591 32.267 6.208 39.47 37.298 17 84.103 19.758 122.918 17.74-18.71 1.828-32.271 23.323-26.355 41.781 5.914 18.456 29.684 28.809 46.194 20.123-12.662 8.235-8.778 30.065 3.446 39.856s28.664 10.93 43.947 11.646c-9.116 10.489-25.479 8.486-39.42 9.423-13.94.939-30.532 11.6-25.687 25.16-7.129-12.729-26.056-16.608-36.736-7.528-10.681 9.08-10.162 28.61 1.007 37.904-19.642-14.445-21.566-17.297-44.829-23.377-10.942-2.861-22.907-4.625-32.907.141-19.782 9.432-20.441 40.183-6.857 58.508 13.588 18.323 15.52 19.399 36.534 27.348-22.675-5.283-43.738 16.895-45.269 40.281-1.524 23.287 16.737 51.694 23.337 76.61l.083.307c-9.728-2.184-23.587-13.829-30.238-21.526-6.649-7.699-13.152-18.383-22.944-20.18-9.79-1.798-17.115 12.673-14.01 22.344-6.258-14.462-20.616-34.634-34.699-29.027-14.085 5.604-13.505 21.677-15.742 38.45-6.569-26.643-5.458-39.895-18.307-64.261-7.459-14.143-14.22-20.162-26.138-30.656-11.675-10.278-29.372-2.662-29.744 12.746l-.602 24.882c-19.307-26.4-41.661 27.754-27.088 53.096-10.418-8.057-21.79-16.482-34.651-16.929-12.858-.449-26.244 11.512-22.226 24.092a14.6 14.6 0 0 0-3.467-3.493c-5.622-4.002-13.498-3.479-18.069 2.032-10.749 12.955-14.585 32.815-17.009 50.64-.871-24.632-6.023-72.525-26.82-68.002-.946-15.108-1.958-30.508-7.453-44.745-5.496-14.235-16.322-27.368-30.717-31.587s-23.741 6.827-35.408 17.734l39.617-72.203c5.805-10.578 11.71-21.455 13.39-33.578 1.682-12.123-1.744-25.949-11.539-33.534-17.278-13.377-40.935-.895-57.953 11.562 3.294-12.055-7.492-24.818-19.564-28.203s-24.633-.086-36.49 3.211c4.87-11.654 16.032-19.009 27.065-24.808 11.032-5.797 22.866-10.97 31.012-20.459s11.313-24.967 3.263-35.141a215.8 215.8 0 0 0 49.675-31.138c8.81-7.365 17.52-16.37 18.914-28.044 1.379-11.55-8.361-25.128-19.527-23.268 17.467-3.299 38.928-14.345 56.211-10.594 9.658 2.097 12.085 2.193 21.463 5.468 8.632 3.013 17.613 8.728 26.441 10.604 3.082.655 5.663.451 7.853-.368-4.653-7.09-9.302-14.182-13.882-21.342-6.597-10.33-19.686-31.007-19.686-31.007s2.115-.33 3.143-1.93c1.029-1.598 11.582 18.674 19.476 30.422 3.996 5.949 6.72 10.213 10.111 15.316s4.069 6.151 4.069 6.151 8.135-14.66 10.26-22.794c11.457-20.318 8.687-19.103 17.082-39.071 7.157-24.18 23.328-53.052 31.565-76.836 7.988 9.814 7.019 23.734 6.785 36.24-.232 12.504 2.052 27.335 12.967 33.514 8.453 4.785 18.778 2.307 27.538-1.173C364.446 56.61 391.268 31.706 406.587.47c-4.803 13.073-4.749 29.895 5.664 39.619 10.416 9.725 31.651 3.427 30.162-10.672 2.692 15.66 23.254 21.523 37.976 17.059 14.725-4.463 26.855-15.201 41.653-19.43l-41.198 48.552c-4.616 5.44-9.527 11.853-8.464 19.132z"/></svg>
