<svg xmlns="http://www.w3.org/2000/svg" width="460" height="476" viewBox="0 0 460 476" class="{{ include.classes }}" role="{{ include.role | default: 'presentation' }}"><path fill="currentColor" d="M32.264 475.787c24.34.496 45.228-8.896 56.702-25.498l4.957 21.557c22.081-6.208 34.607-26.877 30.997-51.145 2.719 16.403 13.245 34.028 28.23 47.264 24.892-14.527 38.188-42.176 36.253-73.846 4.262 21.857 16.96 44.959 35.436 63.805 48.502-33.842 75.143-52.629 76.338-117.049 9.348 46.162 42.724 58.375 86.389 93.416 27.016-20.831 35.764-59.608 22.435-99.444l37.759 32.696c-1.652-20.366 4.976-49.653-1.755-70.736s-19.052-43.023-37.958-59.8c17.689 11.358 28.884 1.745 51.006 8.475-21.68-29.817-35.114-71.284-57.226-100.915-42.901-57.488-49.7-75.352-53.195-89.534 0 0 24.122-37.137 30.892-39.196 0 0-8.931-6.2-12.771-8.352-6.7 28.546-25.008 42.262-25.008 42.262-13.438-2.766-73.072-14.676-139.195-38.045C157.386-4.258 122.413.682 122.553 1.16c6.54 22.293 30.486 44.445 54.394 50.317-41.192-8.463-81.287-8.505-116.524-.122l31.239 20.242c-40.26 3.742-72.007 25.76-85.002 58.954 31.987 23.221 45.78 38.36 77.912 35.152C26.279 177.723 9.83 216.065.243 271.896c20.886 7.656 42.118 10.523 60.924 8.227-35.107 5.355-53.41 39.613-40.89 76.534l29.99 1.257c-21.962 11.972-40.545 31.254-43.735 57.032 8.183-1.643 20.773-1.289 28.955-2.931-12.46 15.718-13.693 40.113-3.224 63.774z"/></svg>
