<svg xmlns="http://www.w3.org/2000/svg" width="481" height="537" viewBox="0 0 481 537" class="{{ include.classes }}" role="{{ include.role | default: 'presentation' }}"><path fill="currentColor" d="M447.926 531.245c-1.866-5.79-4.118-11.415-6.632-16.908-4.56-10.069-10.141-19.616-16.253-28.836 18.412-16.304 31.874-39.839 45.21-57.218 3.415-4.452 6.957-9.182 7.459-13.741.503-4.56-3.407-8.61-9.174-7.223-6.877 1.654-12.516 9.692-19.06 9.723-4.483.021-5.98-4.22-4.377-8.044s5.294-7.287 8.61-10.711c17.473-18.042 27.409-39.748 26.896-58.759-.185-6.884-3.047-14.379-11.614-14.3-11.308.104-20.4 12.231-26.463 21.638-6.062 9.408-19.391 20.885-28.201 16.995-5.387-2.377-4.378-9.688-.041-15.275 4.338-5.587 11.033-9.956 17.178-14.492 21.938-16.195 38.98-36.949 47.97-57.948 2.339-5.465.183-10.487-5.378-12.003-4.819-1.313-8.469-5.791-8.234-10.675.39-8.083 5.372-17.554 1.714-24.101-4.324-7.737-19.519-7.085-31.079-1.032s-20.007 15.828-27.047 25.345-.449 3.898-10.147 12.13c-9.104 7.725-24.352 13.498-30.638 7.674-6.289-5.826 1.583-17.357 9.097-25.979 26.214-30.082 39.401-44.579 65.615-74.661 7.187-8.248 14.603-16.886 17.222-25.792 2.618-8.904-1.254-18.056-11.402-18.747-5.685-.387-12.446 1.859-17.752.793-10.304-2.069-8.634-14.23-5.209-23.942 3.425-9.71 6.383-21.73-2.954-25.126-6.107-2.222-15.309.74-22.089 5.48-6.781 4.738-11.691 10.926-16.417 16.939-14.71 18.718-10.183 5.486-24.893 24.204-5.516 7.019-11.329 14.307-19.52 19.508s-19.482 7.564-24.92 3.286c-6.677-5.253-1.398-16.351 3.994-25.306l28.084-46.642c7.241-12.026 14.373-26.827 5.685-34.107-3.752-3.145-9.782-4.059-14.507-6.305-7.532-3.579-11.419-10.336-16.932-15.706-5.514-5.37-14.201-9.54-24.558-6.572-13.146 3.766-21.171 16.16-29.466 26.144s-25.187 20.305-33.397 14.462c-4.544-3.234-3.443-9.785-2.962-15.51.814-9.689-.998-19.116-7.484-25.546-6.487-6.43-18.223-9.376-30.531-5.823-10.764 3.107-21.935 10.856-31.704 9.836-14.063-1.468-14.977-20.418-30.396-17.78-9.335 1.598-16.407 10.258-21.499 17.636-13.178 19.093-26.883 39.81-25.132 58.056.546 5.7 2.62 10.974 1.881 16.988-.738 6.014-5.412 13.373-12.907 16.203-7.832 2.956-15.443-.121-23.228 3.028-10.054 4.067-12.877 14.853-12.164 22.554 2.507 27.108 22.575 48.488 52.688 56.134 8.297 2.107 18.424 4.329 18.637 11.936.304 10.825-18.414 19.456-32.544 23.443l-52.729 14.879c-9.027 2.548-20.07 6.669-23.18 14.001-3.326 7.842 5.308 12.437 13.403 14.445s17.718 4.592 17.406 12.118c-.18 4.318-3.793 8.989-4.716 13.438-2.673 12.893 16.269 15.71 31.656 15.349 48.244-1.133 47.802 3.02 96.046 1.887 11.174-.262 25.205 3.342 19.919 12.703-4.167 7.38-16.026 9.389-25.019 10.202-42.952 3.885-40.251 14.806-79.547 39.909-5.597 3.575-11.51 7.835-13.51 12.915-3.103 7.88 5.163 13.114 14.27 13.385 9.106.272 19.193-2.625 28.513-2.908s18.622 3.421 17.515 11.137c-.57 3.967-3.792 8.096-4.752 12.115-1.773 7.434 4.833 12.709 13.107 13.754s17.838-1.163 27.061-3.345l84.587-20.011c12.67-2.997 29.108-4.477 30.535 4.873 1.047 6.855-7.45 14.74-15.712 20.12-8.262 5.379-17.816 10.515-22.368 17.92-7.167 11.66 3.11 21.853 16.484 23.03 13.375 1.175 28.635-3.551 43.217-6.338 11.821-2.259 25.678-2.325 28.642 5.778 1.08 2.957.443 6.558 1.257 9.629 1.953 7.373 12.094 10.204 22.351 8.873 5.516-.802 10.819-2.473 16.084-4.442 7.516-2.813 14.988-2.162 19.27 1.598 9.008 7.909 26.904 8.104 41.531-2.613 1.428-1.046 1.644-.476 3.015-1.61 12.928 18.851 10.238 24.953 16.866 47.096-1.157-6.061 11.65.568 9.763-5.212"/></svg>
