<svg xmlns="http://www.w3.org/2000/svg" width="468" height="580" viewBox="0 0 468 580" class="{{ include.classes }}" role="{{ include.role | default: 'presentation' }}"><path fill="currentColor" d="m15.706 285.949-1.446 39.333-12.246-7.359a144.6 144.6 0 0 0 11.138 48.872L.939 363.59a94.4 94.4 0 0 0 19.988 37.963q-6.56-1.443-13.12-2.889l21.119 27.44-16.832 1.952c18.788 28.962 48.514 50.641 81.839 59.682 15.681 4.255 32.736 6.102 45.675 15.926 5.659 4.298 9.785 10.73 11.667 17.553 1.037 3.763.215 11.193 2.936 14.886-.686 1.099-1.376 2.195-2.117 3.258l-10.348 15.342c-1.181 1.682-2.408 3.333-3.61 5.002 0 0-4.908 6.836-7.245 9.986.74 2.025 1.434 3.921 4.201 3.15 104.599-139.993 7.366-10.034 7.366-10.034 1.221-1.676 2.468-3.335 3.669-5.026l10.526-15.419c.97-1.374 1.857-2.803 2.753-4.226 2.398-.342 5.503-1.615 8.55-2.857a443 443 0 0 0 9.549-2.673c6.385-.356 12.908.643 18.82 3.073 17.298 7.109 29.542 22.518 40.989 37.304l4.383-10.896c7.648 9.434 19.576 15.256 31.721 15.482l-2.614-9.764c11.85 8.916 27.187 13.065 41.919 11.341l-7.695-9.381q17.924-.394 35.848-.789l-11.926-11.845c17.095 4.198 36.092-.277 49.516-11.664l-11.089-9.757q25.444-13.416 50.884-26.833c-2.48-4.681-7.339-8.021-12.6-8.66 16.539-7.717 31.144-19.539 42.136-34.105l-16.778-9.938c13.161-8.598 23.034-22.099 27.237-37.243l-14.104-3.543 23.522-31.687-22.177-5.57 12.398-17.188-10.502 1.511c11.116-10.371 18.353-24.802 20.014-39.91l-17.395-1.798c7.187-13.747 10.708-29.389 10.102-44.888l-15.707 2.425c11.966-13.033 18.744-30.7 18.566-48.387l-26.364 1.293a122.1 122.1 0 0 0 12.416-52.285l-19.502 10.903 10.328-34.983L417 155.897l5.979-34.563-11.117 3.85 6.603-40.896-17.947 9.47 4.973-42.43-14.1 8.28q5.645-29.42 11.288-58.84-31.026 20.311-62.051 40.624l-.561-18.593c-15.297 6.283-28.399 17.776-36.618 32.124l.078-19.06a158.7 158.7 0 0 0-32.536 50.35l.611-18.456-25.664 20.648-7.291-10.484-19.56 29.486q-1.994-12.615-3.984-25.231c-10.534 2.357-19.915 9.444-25.06 18.932l-7.932-8.912-9.288 23.724q-4.66-8.704-9.32-17.405c-11.965 9.943-21.369 22.941-27.072 37.413l-9.749-13.188q-7.539 20.82-15.079 41.639l-14.288-11.69q-9.472 24.51-18.94 49.023-5.922-6.302-11.842-12.606A170.5 170.5 0 0 0 46.2 248.705c-4.64-3.632-7.743-9.166-8.422-15.019-10.938 17.092-14.765 38.582-10.398 58.395z"/></svg>
