<svg xmlns="http://www.w3.org/2000/svg" width="{{ include.width | default: '100' }}" height="{{ include.height | default: '100' }}" viewBox="0 0 100 100" class="{{ include.classes }}" role="{{ include.role | default: 'presentation' }}"><path fill="currentColor" d="m15.409 49.55-.221 6.007-1.87-1.124c.127 2.561.705 5.1 1.7 7.462l-1.864-.489a14.4 14.4 0 0 0 3.052 5.797l-2.004-.441 3.225 4.19-2.57.298c2.869 4.422 7.408 7.732 12.496 9.113 2.395.65 5 .932 6.975 2.432.864.656 1.494 1.638 1.781 2.68.159.575.033 1.71.449 2.273-.105.168-.21.335-.324.498l-1.58 2.342c-.18.257-.367.51-.55.764 0 0-.75 1.044-1.107 1.525.113.309.868.786 1.29.668 15.972-21.376 1.125-1.532 1.125-1.532.187-.256.377-.51.56-.768l1.608-2.354c.148-.21.283-.428.42-.645.366-.052.691-.373 1.156-.563.488-.13 1.36-.542 1.844-.683.975-.054 1.785.377 2.688.748 2.64 1.086 3.811 3.374 5.56 5.631l.668-1.663a6.48 6.48 0 0 0 4.844 2.364l-.4-1.491a9.02 9.02 0 0 0 6.402 1.732l-1.175-1.433 5.474-.12-1.822-1.809c2.61.641 5.512-.042 7.562-1.781l-1.694-1.49 7.77-4.097a2.57 2.57 0 0 0-1.924-1.322 17.2 17.2 0 0 0 6.434-5.208l-2.562-1.518a10.08 10.08 0 0 0 4.159-5.687l-2.154-.54 3.592-4.839-3.386-.85 1.893-2.625-1.604.23a9.9 9.9 0 0 0 3.056-6.093l-2.656-.275a13.7 13.7 0 0 0 1.543-6.854l-2.399.37a10.89 10.89 0 0 0 2.835-7.388l-4.025.197a18.65 18.65 0 0 0 1.895-7.984l-2.977 1.665q.787-2.67 1.577-5.341l-3.49.163.913-5.277-1.697.588 1.008-6.245-2.74 1.446.76-6.479-2.154 1.265 1.724-8.985-9.475 6.203-.086-2.84a11.56 11.56 0 0 0-5.591 4.906l.012-2.91a24.2 24.2 0 0 0-4.968 7.688q.046-1.41.093-2.818l-3.919 3.153-1.113-1.601-2.987 4.502-.608-3.852a5.87 5.87 0 0 0-3.827 2.89l-1.211-1.36-1.418 3.622-1.423-2.658a14.27 14.27 0 0 0-4.134 5.713l-1.489-2.014-2.302 6.358-2.182-1.785-2.892 7.486-1.808-1.925a26 26 0 0 0-3.105 9.1 3.45 3.45 0 0 1-1.286-2.293 11.96 11.96 0 0 0-1.588 8.917z"/><path fill="currentColor" d="m44.563 67.32-3.665-3.402-.002.003zm11.757 0-3.631 3.437.015.017.016.016zm.04 10.274 3.633 3.435.015-.016.015-.017zm-11.797 0-3.697 3.366.031.035.032.034zm-.626-16.875-5 .055.056 4.945h4.944zm-.43-38.594v-5h-5.055l.056 5.056zm13.985 0 5 .06.061-5.06h-5.06zm-.469 38.594v5h4.94l.06-4.94zM47.57 72.437c0-.736.2-1.223.659-1.717l-7.333-6.8c-2.198 2.371-3.326 5.296-3.326 8.517zm.657-1.714c.167-.18.622-.59 2.156-.59v-10c-3.518 0-6.944 1.049-9.485 3.785zm2.156-.59c1.616 0 2.12.428 2.306.624l7.263-6.874c-2.575-2.72-6.03-3.75-9.57-3.75zm2.337.657c.487.505.67.97.67 1.647h10c0-3.28-1.196-6.227-3.47-8.586zm.67 1.647c0 .71-.194 1.215-.695 1.755l7.328 6.804c2.208-2.377 3.368-5.31 3.368-8.558zm-.664 1.722c-.142.15-.617.583-2.265.583v10c3.508 0 6.966-1 9.532-3.713zm-2.265.583c-1.648 0-2.123-.432-2.265-.583l-7.267 6.87c2.566 2.714 6.023 3.713 9.532 3.713zm-2.202-.515c-.486-.534-.689-1.051-.689-1.79h-10c0 3.22 1.126 6.14 3.296 8.523zm.678-13.564-.43-38.594-9.999.112.43 38.593zm-5.43-33.538h13.985v-10H43.508zm8.986-5.06-.47 38.593 10 .121.469-38.593zm4.53 33.654H43.937v10h13.086z"/><path fill="#000" d="M42.57 72.438q0-2.97 1.992-5.118 2.032-2.187 5.82-2.187 3.868 0 5.938 2.187 2.07 2.149 2.07 5.118 0 2.968-2.03 5.156-2.031 2.148-5.9 2.148-3.866 0-5.898-2.148-1.992-2.188-1.992-5.156m1.367-11.72-.43-38.593h13.985l-.469 38.594z"/></svg>
