<svg xmlns="http://www.w3.org/2000/svg" width="{{ include.width | default: '100' }}" height="{{ include.height | default: '100' }}" viewBox="0 0 100 100" class="{{ include.classes }}" role="{{ include.role | default: 'presentation' }}"><path fill="currentColor" d="M69.042 22.475c.257 1.213 1.309 1.265 2.4 1.14l-3.473 3.113c-1.802 1.616-1.012 5.185 1.463 6.582 5.843 3.3 12.926 4.38 18.742 4.567-2.792.05-4.546 3.409-3.408 6.527 1.137 3.119 4.854 5.142 7.224 3.933-1.796 1.186-.92 4.833 1.052 6.61 1.971 1.775 4.461 2.183 6.772 2.505-1.232 1.605-3.723 1.056-5.809 1.024-2.085-.032-4.44 1.502-3.53 3.8-1.243-2.192-4.145-3.085-5.63-1.732-1.487 1.352-1.148 4.575.658 6.255-3.15-2.642-3.478-3.137-7.061-4.45-1.686-.617-3.51-1.068-4.952-.417-2.852 1.288-2.54 6.343-.25 9.543 2.292 3.2 2.597 3.402 5.867 4.992-3.484-1.173-6.358 2.197-6.276 6.027.082 3.815 3.212 8.737 4.539 12.928l.017.052c-1.494-.49-3.736-2.593-4.84-3.95-1.105-1.356-2.227-3.203-3.725-3.63s-2.407 1.858-1.81 3.492c-1.135-2.465-3.567-5.98-5.612-5.244-2.045.734-1.743 3.388-1.855 6.12-1.346-4.475-1.356-6.642-3.616-10.826-1.313-2.43-2.411-3.511-4.346-5.399-1.895-1.849-4.457-.831-4.307 1.701l.243 4.09c-3.26-4.607-5.9 4.012-3.367 8.38-1.676-1.466-3.501-3.006-5.443-3.252s-3.797 1.545-3.024 3.67a3 3 0 0 0-.568-.622c-.9-.734-2.079-.753-2.693.093-1.445 1.99-1.756 5.209-1.883 8.111-.46-4.067-1.877-12.023-4.948-11.557-.344-2.5-.703-5.05-1.72-7.468-1.019-2.417-2.824-4.725-5.048-5.613-2.223-.887-3.482.807-5.093 2.447l4.998-11.36c.732-1.664 1.475-3.376 1.566-5.35s-.61-4.296-2.186-5.676c-2.78-2.434-6.175-.696-8.57 1.128.335-1.941-1.46-4.187-3.323-4.906-1.862-.72-3.71-.344-5.45.04.577-1.854 2.16-2.916 3.742-3.723 1.584-.807 3.296-1.5 4.395-2.954 1.1-1.453 1.369-3.96.02-5.743a25.4 25.4 0 0 0 7.062-4.462c1.228-1.095 2.418-2.462 2.472-4.365.053-1.884-1.595-4.25-3.251-4.093 2.585-.31 5.668-1.841 8.32-.992 1.482.474 1.849.523 3.304 1.188 1.34.611 2.769 1.673 4.123 2.1.473.149.858.15 1.177.044-.795-1.23-1.59-2.46-2.375-3.7-1.132-1.79-3.38-5.37-3.38-5.37s1.315-1.026 1.448-1.275c.133-.25 1.784 3.887 3.13 5.927.681 1.033.84 2.192 2.42 2.078 1.578-.115.45.196.45.196s-.21-.511 0-1.822c1.454-3.193 1.053-3.03 2.05-6.205.753-3.886 2.8-8.424 3.722-12.23 1.334 1.722 1.375 4.002 1.507 6.058s.675 4.529 2.4 5.692c1.337.901 2.858.632 4.13.176 4.65-1.665 8.354-5.407 10.242-10.346-.548 2.089-.314 4.86 1.383 6.6 1.699 1.74 4.811.988 4.398-1.354.615 2.615 3.789 3.856 5.946 3.318s3.839-2.144 6.01-2.642l-5.552 7.444c-.622.834-1.275 1.824-1.018 3.037"/><path fill="currentColor" d="M47.11 79h-5v5h5zm0-45.078h5v-6.848l-6.523 2.085zm-15.274 4.883h-5v6.847l6.523-2.085zm0-11.133-1.533-4.76-3.467 1.117v3.643zm18.437-5.938v-5h-.785l-.747.241zm10.508 0h5v-5h-5zm0 57.266v5h5v-5zm-8.672 0V33.922h-10V79zm-6.522-49.84-15.274 4.882 3.046 9.525 15.273-4.883zm-8.751 9.645V27.672h-10v11.133zm-3.467-6.374 18.437-5.937-3.065-9.519-18.438 5.938zm16.904-5.697h10.508v-10H50.273zm5.508-5V79h10V21.734zm5 52.266H47.11v10h13.672z"/><path fill="#000" d="M47.11 79V33.922l-15.274 4.883V27.672l18.437-5.938h10.508V79z"/></svg>
