<svg xmlns="http://www.w3.org/2000/svg" width="{{ include.width | default: '100' }}" height="{{ include.height | default: '100' }}" viewBox="0 0 100 100" class="{{ include.classes }}" role="{{ include.role | default: 'presentation' }}"><path fill="currentColor" d="M82.442 96.478a27 27 0 0 0-1.137-2.9c-.783-1.727-1.74-3.365-2.789-4.946 3.159-2.797 5.468-6.834 7.755-9.815.586-.764 1.194-1.575 1.28-2.357s-.585-1.477-1.574-1.239c-1.18.284-2.147 1.663-3.27 1.668-.768.004-1.025-.724-.75-1.38s.908-1.25 1.477-1.837c2.997-3.095 4.701-6.818 4.614-10.08-.032-1.18-.523-2.465-1.993-2.452-1.94.018-3.499 2.098-4.539 3.712-1.04 1.613-3.326 3.582-4.837 2.915-.924-.408-.751-1.662-.007-2.62s1.892-1.708 2.946-2.486c3.763-2.778 6.687-6.338 8.229-9.94.4-.937.031-1.799-.923-2.059-.827-.225-1.453-.993-1.412-1.83.067-1.387.921-3.012.294-4.135-.742-1.327-3.348-1.215-5.331-.177s-3.432 2.715-4.64 4.347-.077.67-1.74 2.081c-1.562 1.325-4.177 2.315-5.255 1.316-1.08-.999.271-2.977 1.56-4.456 4.496-5.16 6.758-7.646 11.255-12.806 1.233-1.415 2.505-2.897 2.954-4.424s-.215-3.098-1.956-3.216c-.975-.066-2.135.319-3.045.136-1.767-.355-1.48-2.44-.893-4.107.587-1.665 1.095-3.727-.507-4.31-1.047-.38-2.626.127-3.789.94s-2.005 1.874-2.816 2.906c-2.523 3.21-1.747.94-4.27 4.152-.946 1.203-1.943 2.454-3.348 3.346s-3.342 1.297-4.275.563c-1.145-.9-.24-2.804.685-4.34l4.818-8.001c1.242-2.063 2.465-4.601.975-5.85-.644-.54-1.678-.697-2.489-1.082-1.291-.614-1.958-1.773-2.904-2.694-.946-.92-2.436-1.636-4.212-1.127-2.255.646-3.632 2.772-5.055 4.484s-4.32 3.483-5.728 2.481c-.78-.555-.59-1.678-.508-2.66.14-1.662-.171-3.28-1.284-4.382-1.113-1.103-3.126-1.608-5.237-1-1.846.534-3.763 1.863-5.438 1.688-2.412-.252-2.57-3.502-5.214-3.05-1.601.274-2.814 1.76-3.688 3.025-2.26 3.275-4.611 6.829-4.31 9.959.093.977.449 1.882.322 2.914-.127 1.031-.928 2.293-2.214 2.779-1.343.507-2.649-.02-3.984.52-1.725.697-2.209 2.547-2.087 3.868.43 4.65 3.873 8.317 9.038 9.629 1.423.361 3.16.742 3.197 2.047.052 1.857-3.159 3.337-5.583 4.021L9.766 46.77c-1.549.437-3.443 1.143-3.976 2.401-.57 1.345.91 2.133 2.299 2.478 1.388.344 3.039.788 2.985 2.078-.03.741-.65 1.542-.809 2.305-.458 2.212 2.791 2.695 5.43 2.633 8.276-.194 8.2.518 16.475.324 1.917-.045 4.324.573 3.417 2.179-.715 1.266-2.749 1.61-4.292 1.75-7.367.666-6.904 2.54-13.644 6.845-.96.614-1.975 1.344-2.318 2.216-.532 1.351.886 2.25 2.448 2.296s3.292-.45 4.89-.5c1.6-.048 3.195.588 3.005 1.911-.098.68-.65 1.389-.815 2.078-.304 1.275.83 2.18 2.248 2.36 1.42.179 3.06-.2 4.642-.574l14.51-3.433c2.173-.514 4.992-.768 5.237.836.18 1.176-1.278 2.529-2.695 3.451s-3.056 1.804-3.837 3.074c-1.23 2 .534 3.749 2.828 3.95s4.911-.609 7.413-1.087c2.027-.387 4.404-.398 4.913.992.185.507.076 1.124.215 1.651.335 1.265 2.075 1.75 3.834 1.522.946-.138 1.856-.424 2.759-.762 1.29-.482 2.57-.37 3.306.274 1.544 1.357 4.614 1.39 7.123-.448.245-.18.282-.082.517-.276 2.218 3.233 1.757 4.28 2.893 8.078-.198-1.04 1.999.098 1.675-.894"/><path fill="currentColor" d="M29.18 60.21v-5h-5v5zm13.28 0h5v-5h-5zm2.032 8.36-3.5 3.57.034.034.035.033zm10.586 0-3.535-3.535zm-.312-13.047-3.334 3.727.016.014.016.014zm-12.07-1.992h-5v5h5zm0-7.812v-5h-5v5zm10.976-1.836-3.353-3.71-.018.017-.018.016zm.39-11.524-3.616 3.453.02.02.02.021zm-9.257.274 3.904 3.123.015-.019.015-.019zm-1.563 7.187v5h5v-5zm-12.969 0h-5v5h5zm0-1.953h5v-.024zm5.508-12.226 3.062 3.952.009-.006.009-.007zm28.125-.313-3.09 3.93.007.006.007.006zm3.086 18.906-4.184-2.737-.012.018-.011.018zm-5.86 4.805-1.969-4.596-3.03 1.3v3.296zm0 .156h-5v3.855l3.728.98zm6.602 4.375 3.809-3.24zm-2.851 21.524 3.19 3.85.003-.003zm-30.117.234-3.15 3.883.015.012.014.012zm-.586-12.46V60.21h-10v2.656zm-5 2.343h13.28v-10H29.18zm8.28-5v2.187h10v-2.187zm0 2.187c0 3.5.847 7.11 3.531 9.742L47.993 65c-.024-.023-.532-.528-.532-2.602zm3.601 9.81c2.427 2.289 5.467 3.315 8.705 3.315v-10c-1.033 0-1.51-.275-1.843-.59zm8.705 3.315c3.26 0 6.412-.981 8.848-3.417l-7.071-7.071c-.169.168-.558.488-1.777.488zm8.848-3.417c2.7-2.7 3.417-6.537 3.417-10.098h-10c0 1.209-.13 2.017-.28 2.519-.145.485-.27.569-.208.508zm3.417-10.098c0-3.721-.935-7.576-3.964-10.24l-6.603 7.51c.024.021.147.13.28.512.146.416.287 1.119.287 2.218zM58.1 51.798c-2.618-2.343-5.906-3.267-9.31-3.267v10c1.595 0 2.29.405 2.642.719zm-9.31-3.267h-6.095v10h6.094zm-1.095 5V45.72h-10v7.812zm-5-2.812h5.82v-10h-5.82zm5.82 0c3.14 0 6.14-.944 8.545-3.16l-6.777-7.353c-.251.232-.689.513-1.767.513zm8.51-3.127c2.866-2.59 3.678-6.327 3.678-9.803h-10c0 2.201-.542 2.527-.384 2.384zm3.678-9.803c0-3.057-.642-6.444-3.064-8.923l-7.153 6.987c-.12-.123-.068-.144.02.15.095.313.197.878.197 1.786zm-3.024-8.882c-2.249-2.356-5.208-3.266-8.187-3.266v10c.493 0 .749.072.848.11.078.029.092.047.106.06zm-8.187-3.266c-3.221 0-6.411 1.088-8.622 3.906l7.869 6.171c.008-.01.002 0-.017.014s-.027.016-.008.008c.039-.016.26-.1.778-.1zM40.9 29.509c-2.01 2.512-2.658 5.65-2.658 8.71h10c0-1.785.393-2.37.467-2.463zm-2.658 8.71v1.601h10V38.22zm5-3.399H30.273v10h12.97zm-7.969 5v-1.953h-10v1.953zm0-1.977c-.02-3.963 1.273-6.47 3.57-8.25l-6.124-7.905c-5.099 3.95-7.478 9.593-7.446 16.204zm3.587-8.263c2.635-2.06 6.203-3.275 11.1-3.275v-10c-6.611 0-12.496 1.674-17.258 5.396zm11.1-3.275c5.162 0 8.593 1.175 10.856 2.954l6.18-7.861c-4.56-3.586-10.425-5.093-17.035-5.093zm10.87 2.965c2.153 1.68 3.233 3.822 3.233 6.957h10c0-6.032-2.359-11.156-7.08-14.84zm3.233 6.957c0 2.527-.538 4.175-1.255 5.27l8.368 5.475c2.044-3.124 2.886-6.815 2.886-10.745zm-1.278 5.306c-.757 1.179-1.885 2.166-3.622 2.91l3.94 9.192c3.367-1.444 6.145-3.66 8.097-6.7zm-6.652 7.506v.156h10v-.156zm3.727 4.992c1.332.35 2.69 1.162 4.066 2.779l7.617-6.48c-2.479-2.913-5.522-5.018-9.138-5.97zm4.066 2.779c.94 1.105 1.699 2.925 1.699 6.057h10c0-4.732-1.168-9.11-4.082-12.536zm1.699 6.057c0 3.486-1.252 6.152-3.935 8.38l6.386 7.694c4.973-4.127 7.549-9.612 7.549-16.074zm-3.933 8.377c-2.684 2.225-6.493 3.576-11.926 3.576v10c7.118 0 13.388-1.8 18.307-5.876zM49.766 74.82c-5.462 0-9.253-1.3-11.88-3.399l-6.24 7.814c4.873 3.892 11.082 5.585 18.12 5.585zm-11.85-3.375c-2.424-1.966-3.736-4.623-3.736-8.578h-10c0 6.618 2.412 12.269 7.436 16.344z"/><path fill="#000" d="M29.18 62.867v-2.656h13.28v2.187q0 4.18 2.032 6.172 2.07 1.953 5.274 1.953 3.36 0 5.312-1.953t1.953-6.562q0-4.492-2.265-6.485-2.227-1.992-5.977-1.992h-6.094V45.72h5.82q3.165 0 5.157-1.836 2.031-1.836 2.031-6.094 0-3.75-1.64-5.43-1.642-1.719-4.57-1.718-3.126 0-4.688 1.992-1.563 1.953-1.563 5.586v1.601H30.273v-1.953q-.039-7.93 5.508-12.226 5.547-4.336 14.18-4.336 8.828 0 13.945 4.023 5.157 4.023 5.157 10.899 0 4.843-2.07 8.007-2.032 3.164-5.86 4.805v.156q3.71.977 6.601 4.375t2.891 9.297q0 7.461-5.742 12.227-5.703 4.726-15.117 4.726-9.375 0-15-4.492-5.586-4.53-5.586-12.46"/></svg>
