<svg xmlns="http://www.w3.org/2000/svg" width="{{ include.width | default: '100' }}" height="{{ include.height | default: '100' }}" viewBox="0 0 100 100" class="{{ include.classes }}" role="{{ include.role | default: 'presentation' }}"><path fill="currentColor" d="M16.162 94.534c4.442.09 8.255-1.624 10.35-4.654q.45 1.967.904 3.934c4.03-1.133 6.317-4.905 5.658-9.335.496 2.994 2.417 6.211 5.152 8.627 4.543-2.651 6.97-7.698 6.617-13.478.778 3.989 3.096 8.206 6.468 11.645 8.853-6.176 13.715-9.606 13.933-21.364 1.707 8.426 7.798 10.655 15.768 17.05 4.931-3.801 6.528-10.879 4.095-18.15l6.892 5.968c-.302-3.717.908-9.063-.32-12.91-1.23-3.85-3.478-7.854-6.929-10.916 3.229 2.073 5.272.319 9.31 1.547-3.957-5.442-6.41-13.01-10.445-18.419-7.83-10.493-9.071-13.753-9.71-16.342 0 0 4.404-6.778 5.64-7.154 0 0-1.631-1.132-2.332-1.524-1.223 5.21-4.564 7.714-4.564 7.714-2.453-.506-13.337-2.68-25.406-6.945-8.244-2.913-14.627-2.011-14.601-1.924 1.193 4.07 5.564 8.112 9.928 9.184-7.519-1.545-14.837-1.552-21.268-.022l5.701 3.695c-7.348.682-13.142 4.701-15.514 10.76 5.838 4.238 8.356 7.001 14.22 6.416-10.64 2.194-13.642 9.192-15.391 19.382 3.812 1.398 7.687 1.921 11.12 1.502-6.408.977-9.749 7.23-7.464 13.969l5.474.23c-4.008 2.185-7.4 5.704-7.983 10.409 1.494-.3 3.792-.235 5.285-.535-2.274 2.869-2.499 7.322-.588 11.64"/><path fill="currentColor" d="M29.57 79h-5v5h5zm0-8.437-3.604-3.466-1.396 1.452v2.013zm20.547-21.368 3.604 3.466.085-.088.08-.093zm4.063-16.797-3.494 3.577.022.021.021.021zm-9.102.235-3.61-3.46-.019.02-.019.02zM43.32 41.5v5h5v-5zm-13.71 0h-5v5h5zm5.585-15.43-3.232-3.815-.006.006-.007.006zm29.297-.508-3.256 3.795.008.007.01.008zm5 11.446-5 .027v.009zm-2.305 9.687-4.38-2.41-.008.015-.009.015zm-6.523 8.672-3.614-3.454-.104.108-.097.114zm-10.82 12.774-3.815-3.232-6.974 8.232h10.789zm20.976 0h5v-5h-5zm0 10.859v5h5v-5zm-36.25 0v-8.437h-10V79zm-1.396-4.972 20.547-21.367-7.208-6.931-20.547 21.367zM53.887 52.48c1.771-2.033 3.31-4.143 4.6-6.333l-8.616-5.075c-.949 1.612-2.118 3.226-3.523 4.838zm4.6-6.333c1.54-2.612 2.372-5.46 2.372-8.475h-10c0 1.1-.287 2.21-.988 3.4zm2.372-8.475c0-3.04-.672-6.454-3.229-8.892l-6.9 7.237c-.155-.147-.129-.215-.055.018.082.258.184.77.184 1.637zm-3.186-8.85c-2.207-2.156-5.01-3.064-7.907-3.064v10c.748 0 .888.186.92.217zm-7.907-3.064c-3.12 0-6.045 1.065-8.298 3.415l7.22 6.92c.143-.15.344-.335 1.078-.335zm-8.336 3.455c-1.38 1.474-2.117 3.29-2.529 4.982-.418 1.72-.58 3.64-.58 5.664h10c0-1.543.13-2.61.297-3.3.175-.718.317-.73.108-.506zM38.32 39.86V41.5h10v-1.64zm5-3.359H29.61v10h13.71zm-8.71 5v-3.36h-10v3.36zm0-3.36c0-3.397 1.213-6.033 3.83-8.266l-6.49-7.607c-4.83 4.12-7.34 9.531-7.34 15.874zm3.817-8.255c2.646-2.241 6.33-3.58 11.534-3.58v-10c-6.984 0-13.143 1.838-17.998 5.95zm11.534-3.58c5.726 0 9.214 1.283 11.275 3.052l6.513-7.589c-4.554-3.908-10.754-5.463-17.788-5.463zm11.292 3.067c2.068 1.758 3.22 4.123 3.24 7.663l10-.054c-.034-6.095-2.215-11.36-6.762-15.228zm3.24 7.672c.02 2.867-.582 5.236-1.686 7.24l8.76 4.822c2.022-3.672 2.957-7.761 2.925-12.134zm-1.703 7.271c-1.277 2.361-3.16 4.897-5.74 7.598l7.229 6.909c3.044-3.185 5.51-6.43 7.306-9.747zm-5.941 7.82L46.029 64.91l7.63 6.463L64.479 58.6zm-7.005 21.006H70.82v-10H49.844zm15.976-5V79h10V68.14zm5 5.859H29.57v10h41.25z"/><path fill="#000" d="M29.57 79v-8.437l20.547-21.368q2.383-2.734 4.063-5.586 1.68-2.85 1.68-5.937 0-3.672-1.68-5.274-1.68-1.64-4.414-1.64-2.89 0-4.688 1.875-1.758 1.875-1.758 7.226V41.5H29.61v-3.36q0-7.305 5.585-12.07 5.625-4.765 14.766-4.765 9.57 0 14.531 4.258 4.96 4.218 5 11.445.04 5.43-2.305 9.687-2.304 4.259-6.523 8.672l-10.82 12.774H70.82V79z"/></svg>
