<svg xmlns="http://www.w3.org/2000/svg" width="{{ include.width | default: '20' }}" height="{{ include.height | default: '16' }}" class="{{ include.classes }}" role="{{ include.role | default: 'presentation' }}" fill="currentColor" viewBox="0 0 20 16"><path d="m12.383 8.446 6.612 6.612c-.229.11-.482.176-.753.176H1.758c-.27 0-.524-.066-.754-.176l6.613-6.612 1.93 1.93a.584.584 0 0 0 .828 0zm7.441-7.441c.11.23.176.482.176.753v11.719c0 .27-.067.523-.176.753L13.21 7.617Zm-19.648 0L6.79 7.617.176 14.23A1.7 1.7 0 0 1 0 13.477V1.757c0-.27.067-.523.176-.752M18.242 0c.27 0 .524.067.754.176l-7.027 7.027-2.008 1.93L1.005.175C1.234.066 1.487 0 1.758 0Z"/></svg>
