<svg xmlns="http://www.w3.org/2000/svg" width="{{ include.width | default: '1em' }}" height="{{ include.height | default: '1em' }}" class="{{ include.classes }}" fill="currentColor" viewBox="0 0 16 16" role="{{ include.role | default: 'presentation' }}" fill="currentColor" fill-rule="evenodd"><path d="M16 2H7.83a3.001 3.001 0 0 0-5.66 0H0v2h2.17a3.001 3.001 0 0 0 5.66 0H16zM5 4a1 1 0 1 0 0-2 1 1 0 0 0 0 2"/><path d="M16 7h-2.17a3.001 3.001 0 0 0-5.66 0H0v2h8.17a3.001 3.001 0 0 0 5.66 0H16zm-5 2a1 1 0 1 0 0-2 1 1 0 0 0 0 2"/><path d="M16 12H7.83a3.001 3.001 0 0 0-5.66 0H0v2h2.17a3.001 3.001 0 0 0 5.66 0H16zM5 14a1 1 0 1 0 0-2 1 1 0 0 0 0 2"/></svg>
