<svg xmlns="http://www.w3.org/2000/svg" width="{{ include.width | default: '1em' }}" height="{{ include.height | default: '1em' }}" class="{{ include.classes }}" fill="currentColor" viewBox="0 0 16 16" role="{{ include.role | default: 'presentation' }}"><path d="M6.367 9.095q0-.53.123-.954.143-.423.477-.812.354-.39.99-.795.459-.3.706-.53t.336-.46q.088-.246.088-.529 0-.425-.283-.636a1 1 0 0 0-.67-.23q-.53 0-1.273.23a9.7 9.7 0 0 0-1.59.689L4 2.718a9.2 9.2 0 0 1 2.067-.882A8 8 0 0 1 8.433 1.5q1.908 0 2.95.865 1.042.866 1.042 2.279 0 .671-.194 1.236-.177.565-.6 1.06-.407.477-1.113.954a4.5 4.5 0 0 0-.672.53 1.6 1.6 0 0 0-.335.46 1.4 1.4 0 0 0-.088.511v.442H6.367zm-.265 3.762q0-.918.547-1.29.566-.37 1.325-.37.76 0 1.29.37.547.372.547 1.29 0 .865-.547 1.254-.53.39-1.29.389-.76 0-1.325-.389-.547-.389-.547-1.254"/></svg>